<svg width="20" height="20" viewBox="0 0 20 20" fill="none" xmlns="http://www.w3.org/2000/svg">
<path d="M0 1.66667C0 0.746192 0.746192 0 1.66667 0H18.3333C19.2538 0 20 0.746192 20 1.66667C20 2.58714 19.2538 3.33333 18.3333 3.33333H1.66667C0.746192 3.33333 0 2.58714 0 1.66667Z" fill="#DEE2E8"/>
<path d="M13.3333 18.3333C13.3333 17.4129 14.0795 16.6667 15 16.6667H18.3333C19.2538 16.6667 20 17.4129 20 18.3333C20 19.2538 19.2538 20 18.3333 20H15C14.0795 20 13.3333 19.2538 13.3333 18.3333Z" fill="#DEE2E8"/>
<path d="M6.66667 10.3333C6.66667 9.41286 7.41286 8.66667 8.33333 8.66667H18.3333C19.2538 8.66667 20 9.41286 20 10.3333C20 11.2538 19.2538 12 18.3333 12H8.33333C7.41286 12 6.66667 11.2538 6.66667 10.3333Z" fill="#DEE2E8"/>
</svg>
