<svg width="30" height="30" viewBox="0 0 30 30" fill="none" xmlns="http://www.w3.org/2000/svg">
<g clip-path="url(#clip0_1158_3307)">
<path d="M15.0039 0C8.74156 0 6.91006 0.00646208 6.55405 0.036003C5.2689 0.142858 4.46921 0.34526 3.59799 0.779143C2.92658 1.11263 2.39706 1.4992 1.87447 2.0411C0.922722 3.02933 0.345907 4.24513 0.1371 5.69033C0.0355807 6.39193 0.00604776 6.53502 4.88857e-05 10.1187C-0.00225837 11.3133 4.88857e-05 12.8854 4.88857e-05 14.9941C4.88857e-05 21.2531 0.00697066 23.0833 0.036965 23.4387C0.140792 24.6896 0.336909 25.4765 0.752215 26.3374C1.54591 27.9852 3.06178 29.2222 4.8476 29.6838C5.46594 29.8431 6.14889 29.9308 7.02565 29.9723C7.39712 29.9885 11.1833 30 14.9718 30C18.7604 30 22.5489 29.9954 22.9111 29.9769C23.9263 29.9292 24.5158 29.85 25.1676 29.6815C26.965 29.2176 28.4532 27.9991 29.263 26.3282C29.6702 25.4881 29.8767 24.6711 29.9702 23.4855C29.9905 23.227 29.999 19.1058 29.999 14.9902C29.999 10.8738 29.9898 6.76026 29.9695 6.50178C29.8749 5.29706 29.6684 4.487 29.248 3.63077C28.9031 2.92986 28.5201 2.40643 27.964 1.87124C26.9717 0.923155 25.7581 0.346183 24.3119 0.13755C23.6111 0.0362338 23.4716 0.0062313 19.8861 0H15.0039Z" fill="url(#paint0_radial_1158_3307)"/>
<path d="M15.0039 0C8.74156 0 6.91006 0.00646208 6.55405 0.036003C5.2689 0.142858 4.46921 0.34526 3.59799 0.779143C2.92658 1.11263 2.39706 1.4992 1.87447 2.0411C0.922722 3.02933 0.345907 4.24513 0.1371 5.69033C0.0355807 6.39193 0.00604776 6.53502 4.88857e-05 10.1187C-0.00225837 11.3133 4.88857e-05 12.8854 4.88857e-05 14.9941C4.88857e-05 21.2531 0.00697066 23.0833 0.036965 23.4387C0.140792 24.6896 0.336909 25.4765 0.752215 26.3374C1.54591 27.9852 3.06178 29.2222 4.8476 29.6838C5.46594 29.8431 6.14889 29.9308 7.02565 29.9723C7.39712 29.9885 11.1833 30 14.9718 30C18.7604 30 22.5489 29.9954 22.9111 29.9769C23.9263 29.9292 24.5158 29.85 25.1676 29.6815C26.965 29.2176 28.4532 27.9991 29.263 26.3282C29.6702 25.4881 29.8767 24.6711 29.9702 23.4855C29.9905 23.227 29.999 19.1058 29.999 14.9902C29.999 10.8738 29.9898 6.76026 29.9695 6.50178C29.8749 5.29706 29.6684 4.487 29.248 3.63077C28.9031 2.92986 28.5201 2.40643 27.964 1.87124C26.9717 0.923155 25.7581 0.346183 24.3119 0.13755C23.6111 0.0362338 23.4716 0.0062313 19.8861 0H15.0039Z" fill="url(#paint1_radial_1158_3307)"/>
<path d="M14.997 3.92341C11.9893 3.92341 11.6118 3.93656 10.4305 3.99034C9.25146 4.04434 8.44669 4.23105 7.74252 4.505C7.01411 4.78794 6.39623 5.16644 5.78065 5.78241C5.16462 6.39816 4.78623 7.01621 4.50243 7.74458C4.22787 8.44918 4.04098 9.2544 3.98791 10.4333C3.93508 11.6149 3.92123 11.9927 3.92123 15.0013C3.92123 18.0098 3.93462 18.3862 3.98815 19.5679C4.04237 20.7472 4.22902 21.5522 4.50266 22.2566C4.78576 22.9852 5.16415 23.6032 5.77996 24.219C6.39531 24.8352 7.01319 25.2146 7.74113 25.4975C8.44577 25.7715 9.25077 25.9582 10.4295 26.0122C11.6109 26.066 11.9881 26.0791 14.9956 26.0791C18.0036 26.0791 18.3799 26.066 19.5612 26.0122C20.7402 25.9582 21.5459 25.7715 22.2506 25.4975C22.9787 25.2146 23.5957 24.8352 24.211 24.219C24.8271 23.6032 25.2055 22.9852 25.4893 22.2568C25.7615 21.5522 25.9484 20.747 26.0038 19.5681C26.0568 18.3865 26.0707 18.0098 26.0707 15.0013C26.0707 11.9927 26.0568 11.6151 26.0038 10.4335C25.9484 9.25417 25.7615 8.44918 25.4893 7.74481C25.2055 7.01621 24.8271 6.39816 24.211 5.78241C23.595 5.16621 22.979 4.78771 22.2499 4.505C21.5438 4.23105 20.7386 4.04434 19.5596 3.99034C18.3783 3.93656 18.0022 3.92341 14.9935 3.92341H14.997ZM14.0035 5.91973C14.2984 5.91927 14.6274 5.91973 14.997 5.91973C17.954 5.91973 18.3045 5.93035 19.4722 5.98343C20.552 6.03282 21.138 6.2133 21.5284 6.36492C22.0452 6.56571 22.4137 6.80573 22.8011 7.19345C23.1887 7.58118 23.4286 7.95044 23.6298 8.46741C23.7814 8.85744 23.9621 9.44365 24.0112 10.5237C24.0643 11.6915 24.0758 12.0423 24.0758 14.9987C24.0758 17.9551 24.0643 18.3059 24.0112 19.4737C23.9618 20.5538 23.7814 21.14 23.6298 21.5301C23.4291 22.047 23.1887 22.4151 22.8011 22.8026C22.4135 23.1903 22.0454 23.4304 21.5284 23.6312C21.1385 23.7835 20.552 23.9635 19.4722 24.0129C18.3047 24.066 17.954 24.0775 14.997 24.0775C12.0398 24.0775 11.6893 24.066 10.5218 24.0129C9.44204 23.963 8.856 23.7826 8.46538 23.6309C7.94855 23.4301 7.57939 23.1901 7.19177 22.8024C6.80415 22.4147 6.5642 22.0463 6.36301 21.5291C6.21142 21.1391 6.03076 20.5529 5.98162 19.4728C5.92855 18.305 5.91794 17.9542 5.91794 14.996C5.91794 12.0377 5.92855 11.6888 5.98162 10.521C6.03099 9.44088 6.21142 8.85467 6.36301 8.46418C6.56374 7.94721 6.80415 7.57795 7.19177 7.19022C7.57939 6.8025 7.94855 6.56248 8.46538 6.36123C8.85577 6.20891 9.44204 6.0289 10.5218 5.97928C11.5435 5.93312 11.9394 5.91927 14.0035 5.91696V5.91973ZM20.9087 7.75912C20.1749 7.75912 19.5797 8.35386 19.5797 9.088C19.5797 9.82191 20.1749 10.4173 20.9087 10.4173C21.6424 10.4173 22.2376 9.82191 22.2376 9.088C22.2376 8.35409 21.6424 7.75866 20.9087 7.75866V7.75912ZM14.997 9.31233C11.8561 9.31233 9.30961 11.8595 9.30961 15.0013C9.30961 18.143 11.8561 20.6891 14.997 20.6891C18.1379 20.6891 20.6835 18.143 20.6835 15.0013C20.6835 11.8595 18.1379 9.31233 14.997 9.31233ZM14.997 11.3087C17.0357 11.3087 18.6886 12.9618 18.6886 15.0013C18.6886 17.0405 17.0357 18.6939 14.997 18.6939C12.9581 18.6939 11.3054 17.0405 11.3054 15.0013C11.3054 12.9618 12.9581 11.3087 14.997 11.3087Z" fill="white"/>
</g>
<defs>
<radialGradient id="paint0_radial_1158_3307" cx="0" cy="0" r="1" gradientUnits="userSpaceOnUse" gradientTransform="translate(7.96781 32.3106) rotate(-90) scale(29.7322 27.6533)">
<stop stop-color="#FFDD55"/>
<stop offset="0.1" stop-color="#FFDD55"/>
<stop offset="0.5" stop-color="#FF543E"/>
<stop offset="1" stop-color="#C837AB"/>
</radialGradient>
<radialGradient id="paint1_radial_1158_3307" cx="0" cy="0" r="1" gradientUnits="userSpaceOnUse" gradientTransform="translate(-5.02614 2.16115) rotate(78.6806) scale(13.2904 54.7837)">
<stop stop-color="#3771C8"/>
<stop offset="0.128" stop-color="#3771C8"/>
<stop offset="1" stop-color="#6600FF" stop-opacity="0"/>
</radialGradient>
<clipPath id="clip0_1158_3307">
<rect width="30.0009" height="30" fill="white" transform="translate(-0.000976562)"/>
</clipPath>
</defs>
</svg>
