<svg width="30" height="30" viewBox="0 0 30 30" fill="none" xmlns="http://www.w3.org/2000/svg">
<g clip-path="url(#clip0_1158_3306)">
<path d="M25.5604 25.5619H21.1154V18.6006C21.1154 16.9406 21.0858 14.8037 18.8035 14.8037C16.4884 14.8037 16.1341 16.6123 16.1341 18.4797V25.5614H11.6891V11.2462H15.9563V13.2025H16.0161C16.8862 11.7147 18.5041 10.8262 20.2264 10.8901C24.7316 10.8901 25.5623 13.8535 25.5623 17.7088L25.5604 25.5619ZM6.67356 9.28938C5.24893 9.28963 4.09383 8.13492 4.09357 6.71026C4.09332 5.2856 5.248 4.13047 6.67264 4.13022C8.09727 4.12996 9.25237 5.28467 9.25262 6.70933C9.25275 7.39348 8.98109 8.04966 8.49743 8.53351C8.01376 9.01736 7.35769 9.28926 6.67356 9.28938ZM8.89609 25.5619H4.4464V11.2462H8.89609V25.5619ZM27.7765 0.00223697H2.21276C1.00456 -0.0113978 0.0137688 0.956413 -0.000976562 2.16462V27.835C0.013264 29.0437 1.00398 30.0125 2.21276 29.9998H27.7765C28.9877 30.0148 29.9823 29.0461 29.999 27.835V2.16277C29.9818 0.952174 28.9871 -0.0155815 27.7765 0.000190064" fill="#0A66C2"/>
</g>
<defs>
<clipPath id="clip0_1158_3306">
<rect width="30" height="30" fill="white" transform="translate(-0.000976562)"/>
</clipPath>
</defs>
</svg>
