<svg width="30" height="30" viewBox="0 0 30 30" fill="none" xmlns="http://www.w3.org/2000/svg">
<path fill-rule="evenodd" clip-rule="evenodd" d="M0 15C0 6.71573 6.71573 0 15 0C23.2843 0 30 6.71573 30 15C30 23.2843 23.2843 30 15 30C6.71573 30 0 23.2843 0 15ZM14.9872 7H15.0124C15.9808 7 16.8861 7.55013 17.2363 8.43033L21.8575 20.0843C22.3023 21.2106 21.6714 22.4586 20.4443 22.8668C20.1762 22.9566 19.9018 23 19.6336 23C18.6652 23 17.7599 22.4499 17.4098 21.5697L14.9998 15.4922L12.5898 21.5697C12.2365 22.4528 11.3312 23 10.366 23C10.0978 23 9.82657 22.9566 9.55844 22.8668C8.33138 22.4586 7.69734 21.2106 8.14211 20.0843L12.7633 8.43033C13.1135 7.55013 14.0188 7 14.9872 7Z" fill="url(#paint0_linear_1136_2565)"/>
<defs>
<linearGradient id="paint0_linear_1136_2565" x1="30.2721" y1="-19.6063" x2="17.7115" y2="-18.7249" gradientUnits="userSpaceOnUse">
<stop stop-color="#3347B1"/>
<stop offset="1" stop-color="#6247B1"/>
</linearGradient>
</defs>
</svg>
