<svg width="1020" height="233" viewBox="0 0 1020 233" fill="none" xmlns="http://www.w3.org/2000/svg">
<path fill-rule="evenodd" clip-rule="evenodd" d="M116.354 0C52.0934 0 0 52.1588 0 116.5C0 180.841 52.0934 233 116.354 233C180.614 233 232.708 180.841 232.708 116.5C232.708 52.1588 180.614 0 116.354 0ZM116.45 54.3667H116.255C108.743 54.3667 101.72 58.6393 99.0042 65.4756L63.1578 155.988C59.7077 164.736 64.6259 174.428 74.1441 177.599C76.224 178.296 78.3283 178.633 80.4081 178.633C87.8955 178.633 94.918 174.383 97.6584 167.524L116.352 120.323L135.046 167.524C137.762 174.361 144.785 178.633 152.297 178.633C154.377 178.633 156.505 178.296 158.585 177.599C168.103 174.428 172.997 164.736 169.547 155.988L133.701 65.4756C130.985 58.6393 123.962 54.3667 116.45 54.3667Z" fill="url(#paint0_linear_939_691)"/>
<path fill-rule="evenodd" clip-rule="evenodd" d="M367.74 68.6263C361.907 66.1409 355.453 64.8983 348.379 64.8983C341.305 64.8983 334.789 66.1409 328.832 68.6263C322.998 70.9873 317.91 74.3425 313.566 78.6919C309.346 82.9169 305.995 88.0119 303.513 93.9767C301.155 99.9415 299.976 106.465 299.976 113.549C299.976 120.632 301.155 127.156 303.513 133.121C305.995 139.085 309.346 144.243 313.566 148.592C317.91 152.817 322.998 156.172 328.832 158.657C334.789 161.019 341.305 162.199 348.379 162.199C355.453 162.199 361.907 161.019 367.74 158.657C373.698 156.172 378.786 152.817 383.006 148.592C387.35 144.243 390.701 139.085 393.059 133.121C395.541 127.156 396.782 120.632 396.782 113.549C396.782 106.465 395.541 99.9415 393.059 93.9767C390.701 88.0119 387.35 82.9169 383.006 78.6919C378.786 74.3425 373.698 70.9873 367.74 68.6263ZM357.315 137.967C354.461 139.085 351.482 139.645 348.379 139.645C345.152 139.645 342.111 139.085 339.257 137.967C336.402 136.724 333.858 134.985 331.624 132.748C329.39 130.511 327.591 127.777 326.225 124.546C324.984 121.315 324.364 117.649 324.364 113.549C324.364 109.448 324.984 105.782 326.225 102.551C327.591 99.3201 329.39 96.5863 331.624 94.3495C333.858 92.1127 336.402 90.4351 339.257 89.3167C342.111 88.074 345.152 87.4527 348.379 87.4527C351.482 87.4527 354.461 88.074 357.315 89.3167C360.294 90.4351 362.9 92.1127 365.134 94.3495C367.368 96.5863 369.106 99.3201 370.347 102.551C371.712 105.782 372.395 109.448 372.395 113.549C372.395 117.649 371.712 121.315 370.347 124.546C369.106 127.777 367.368 130.511 365.134 132.748C362.9 134.985 360.294 136.724 357.315 137.967Z" fill="url(#paint1_linear_939_691)"/>
<path fill-rule="evenodd" clip-rule="evenodd" d="M433.697 67.8807H410.799V199.479H435.186V161.267L433.697 148.219H435.186C437.42 152.071 440.895 155.364 445.612 158.098C450.328 160.832 456.161 162.199 463.111 162.199C468.945 162.199 474.467 161.019 479.68 158.657C485.017 156.172 489.671 152.817 493.643 148.592C497.738 144.243 500.965 139.085 503.323 133.121C505.681 127.156 506.86 120.632 506.86 113.549C506.86 106.465 505.681 99.9415 503.323 93.9767C500.965 88.0119 497.738 82.9169 493.643 78.6919C489.671 74.3425 485.017 70.9873 479.68 68.6263C474.467 66.1409 468.945 64.8983 463.111 64.8983C456.161 64.8983 450.328 66.2652 445.612 68.9991C440.895 71.7329 437.42 75.026 435.186 78.8783H433.697V67.8807ZM467.207 137.781C464.352 139.023 461.312 139.645 458.085 139.645C454.858 139.645 451.755 139.085 448.777 137.967C445.922 136.724 443.378 134.985 441.144 132.748C438.91 130.511 437.11 127.777 435.745 124.546C434.38 121.315 433.697 117.649 433.697 113.549C433.697 109.448 434.38 105.782 435.745 102.551C437.11 99.3201 438.91 96.5863 441.144 94.3495C443.378 92.1127 445.922 90.4351 448.777 89.3167C451.755 88.074 454.858 87.4527 458.085 87.4527C461.312 87.4527 464.352 88.074 467.207 89.3167C470.186 90.5593 472.792 92.2991 475.026 94.5359C477.26 96.7727 479.06 99.5065 480.425 102.737C481.79 105.968 482.473 109.572 482.473 113.549C482.473 117.525 481.79 121.129 480.425 124.36C479.06 127.591 477.26 130.325 475.026 132.561C472.792 134.798 470.186 136.538 467.207 137.781Z" fill="url(#paint2_linear_939_691)"/>
<path fill-rule="evenodd" clip-rule="evenodd" d="M591.697 155.302C598.895 150.704 604.604 144.677 608.824 137.221L588.532 127.156C586.422 131.008 583.506 134.239 579.782 136.849C576.183 139.334 571.591 140.577 566.006 140.577C563.151 140.577 560.359 140.204 557.628 139.458C554.898 138.588 552.354 137.284 549.996 135.544C547.762 133.68 545.838 131.443 544.224 128.833C542.735 126.1 541.742 122.869 541.246 119.141H609.941C609.941 118.395 610.003 117.712 610.127 117.09C610.127 116.469 610.189 115.785 610.313 115.04V112.803C610.313 105.968 609.321 99.6308 607.335 93.7903C605.349 87.9497 602.432 82.9169 598.585 78.6919C594.738 74.3425 589.959 70.9873 584.25 68.6263C578.541 66.1409 572.025 64.8983 564.703 64.8983C557.753 64.8983 551.361 66.2031 545.528 68.8127C539.819 71.4223 534.854 74.9639 530.634 79.4375C526.415 83.7868 523.126 88.9439 520.768 94.9087C518.409 100.749 517.23 106.963 517.23 113.549C517.23 120.632 518.409 127.156 520.768 133.121C523.25 138.961 526.663 144.056 531.007 148.405C535.351 152.755 540.439 156.172 546.272 158.657C552.23 161.019 558.683 162.199 565.634 162.199C575.935 162.199 584.623 159.9 591.697 155.302ZM584.995 96.3999C585.988 98.3881 586.546 100.19 586.67 101.805H542.549C544.162 96.462 546.955 92.2991 550.927 89.3167C554.898 86.3343 559.49 84.8431 564.703 84.8431C568.426 84.8431 571.591 85.4023 574.197 86.5207C576.928 87.6391 579.162 89.0681 580.899 90.8079C582.761 92.5476 584.126 94.4116 584.995 96.3999Z" fill="url(#paint3_linear_939_691)"/>
<path d="M614.39 67.8807L652.741 154.743L632.448 199.479H658.698L715.851 67.8807H688.671L666.517 123.241H665.214L642.129 67.8807H614.39Z" fill="url(#paint4_linear_939_691)"/>
<path fill-rule="evenodd" clip-rule="evenodd" d="M792.589 155.302C799.788 150.704 805.497 144.677 809.716 137.221L789.424 127.156C787.315 131.008 784.398 134.239 780.675 136.849C777.075 139.334 772.483 140.577 766.898 140.577C764.044 140.577 761.251 140.204 758.521 139.458C755.79 138.588 753.246 137.284 750.888 135.544C748.654 133.68 746.73 131.443 745.117 128.833C743.627 126.1 742.635 122.869 742.138 119.141H810.833C810.833 118.395 810.896 117.712 811.02 117.09C811.02 116.469 811.082 115.785 811.206 115.04V112.803C811.206 105.968 810.213 99.6308 808.227 93.7903C806.241 87.9497 803.325 82.9169 799.477 78.6919C795.63 74.3425 790.852 70.9873 785.143 68.6263C779.433 66.1409 772.918 64.8983 765.595 64.8983C758.645 64.8983 752.253 66.2031 746.42 68.8127C740.711 71.4223 735.746 74.9639 731.527 79.4375C727.307 83.7868 724.018 88.9439 721.66 94.9087C719.302 100.749 718.123 106.963 718.123 113.549C718.123 120.632 719.302 127.156 721.66 133.121C724.142 138.961 727.555 144.056 731.899 148.405C736.243 152.755 741.331 156.172 747.165 158.657C753.122 161.019 759.576 162.199 766.526 162.199C776.827 162.199 785.515 159.9 792.589 155.302ZM785.887 96.3999C786.88 98.3881 787.439 100.19 787.563 101.805H743.441C745.055 96.462 747.847 92.2991 751.819 89.3167C755.79 86.3343 760.382 84.8431 765.595 84.8431C769.318 84.8431 772.483 85.4023 775.09 86.5207C777.82 87.6391 780.054 89.0681 781.792 90.8079C783.653 92.5476 785.018 94.4116 785.887 96.3999Z" fill="url(#paint5_linear_939_691)"/>
<path d="M849.68 67.8807H826.781V159.217H851.169V114.853C851.169 111.001 851.603 107.397 852.472 104.042C853.341 100.687 854.582 97.8289 856.195 95.4679C857.809 92.9825 859.795 91.0564 862.153 89.6895C864.511 88.1983 867.241 87.4527 870.344 87.4527C881.018 87.4527 886.354 93.666 886.354 106.093V159.217H910.742V114.853C910.742 111.001 911.177 107.397 912.045 104.042C913.038 100.687 914.341 97.8289 915.955 95.4679C917.692 92.9825 919.802 91.0564 922.284 89.6895C924.767 88.1983 927.621 87.4527 930.848 87.4527C941.025 87.4527 946.114 93.666 946.114 106.093V159.217H970.502V101.619C970.502 96.2756 969.819 91.3671 968.454 86.8935C967.089 82.2956 965.041 78.3812 962.31 75.1503C959.704 71.9193 956.353 69.434 952.257 67.6943C948.162 65.8303 943.321 64.8983 937.736 64.8983C930.29 64.8983 923.96 66.5759 918.747 69.9311C913.535 73.162 909.501 77.0764 906.647 81.6743C904.661 76.9521 901.31 72.9756 896.594 69.7447C891.877 66.5137 886.044 64.8983 879.094 64.8983C873.137 64.8983 867.676 66.2652 862.711 68.9991C857.871 71.7329 854.024 75.3367 851.169 79.8103H849.68V67.8807Z" fill="url(#paint6_linear_939_691)"/>
<path d="M998.032 53.5279C1000.02 54.2735 1002.07 54.6463 1004.18 54.6463C1008.52 54.6463 1012.24 53.1551 1015.35 50.1727C1018.45 47.066 1020 43.338 1020 38.9887C1020 34.6393 1018.45 30.9735 1015.35 27.9911C1012.24 24.8844 1008.52 23.3311 1004.18 23.3311C1002.07 23.3311 1000.02 23.766 998.032 24.6359C996.171 25.3815 994.495 26.4999 993.006 27.9911C991.641 29.358 990.524 30.9735 989.655 32.8375C988.91 34.7015 988.538 36.7519 988.538 38.9887C988.538 41.2255 988.91 43.2759 989.655 45.1399C990.524 47.0039 991.641 48.6815 993.006 50.1727C994.495 51.5396 996.171 52.658 998.032 53.5279Z" fill="url(#paint7_linear_939_691)"/>
<path d="M1016.46 67.8807H992.075V159.217H1016.46V67.8807Z" fill="url(#paint8_linear_939_691)"/>
<defs>
<linearGradient id="paint0_linear_939_691" x1="1032.56" y1="-152.276" x2="536.297" y2="54.6663" gradientUnits="userSpaceOnUse">
<stop stop-color="#3347B1"/>
<stop offset="1" stop-color="#6247B1"/>
</linearGradient>
<linearGradient id="paint1_linear_939_691" x1="1032.56" y1="-152.276" x2="536.297" y2="54.6663" gradientUnits="userSpaceOnUse">
<stop stop-color="#3347B1"/>
<stop offset="1" stop-color="#6247B1"/>
</linearGradient>
<linearGradient id="paint2_linear_939_691" x1="1032.56" y1="-152.276" x2="536.297" y2="54.6663" gradientUnits="userSpaceOnUse">
<stop stop-color="#3347B1"/>
<stop offset="1" stop-color="#6247B1"/>
</linearGradient>
<linearGradient id="paint3_linear_939_691" x1="1032.56" y1="-152.276" x2="536.297" y2="54.6663" gradientUnits="userSpaceOnUse">
<stop stop-color="#3347B1"/>
<stop offset="1" stop-color="#6247B1"/>
</linearGradient>
<linearGradient id="paint4_linear_939_691" x1="1032.56" y1="-152.276" x2="536.297" y2="54.6663" gradientUnits="userSpaceOnUse">
<stop stop-color="#3347B1"/>
<stop offset="1" stop-color="#6247B1"/>
</linearGradient>
<linearGradient id="paint5_linear_939_691" x1="1032.56" y1="-152.276" x2="536.297" y2="54.6663" gradientUnits="userSpaceOnUse">
<stop stop-color="#3347B1"/>
<stop offset="1" stop-color="#6247B1"/>
</linearGradient>
<linearGradient id="paint6_linear_939_691" x1="1032.56" y1="-152.276" x2="536.297" y2="54.6663" gradientUnits="userSpaceOnUse">
<stop stop-color="#3347B1"/>
<stop offset="1" stop-color="#6247B1"/>
</linearGradient>
<linearGradient id="paint7_linear_939_691" x1="1032.56" y1="-152.276" x2="536.297" y2="54.6663" gradientUnits="userSpaceOnUse">
<stop stop-color="#3347B1"/>
<stop offset="1" stop-color="#6247B1"/>
</linearGradient>
<linearGradient id="paint8_linear_939_691" x1="1032.56" y1="-152.276" x2="536.297" y2="54.6663" gradientUnits="userSpaceOnUse">
<stop stop-color="#3347B1"/>
<stop offset="1" stop-color="#6247B1"/>
</linearGradient>
</defs>
</svg>
