<svg width="158" height="36" viewBox="0 0 158 36" fill="none" xmlns="http://www.w3.org/2000/svg">
<path fill-rule="evenodd" clip-rule="evenodd" d="M18 0C8.05887 0 0 8.05888 0 18C0 27.9411 8.05887 36 18 36C27.9411 36 36 27.9411 36 18C36 8.05888 27.9411 0 18 0ZM18.0149 8.4H17.9846C16.8225 8.4 15.7362 9.06015 15.316 10.1164L9.77053 24.1012C9.2368 25.4528 9.99765 26.9503 11.4701 27.4402C11.7919 27.5479 12.1174 27.6 12.4392 27.6C13.5975 27.6 14.6839 26.9433 15.1078 25.8836L17.9998 18.5907L20.8917 25.8836C21.3119 26.9399 22.3983 27.6 23.5604 27.6C23.8821 27.6 24.2114 27.5479 24.5332 27.4402C26.0057 26.9503 26.7627 25.4528 26.229 24.1012L20.6835 10.1164C20.2634 9.06015 19.177 8.4 18.0149 8.4Z" fill="url(#paint0_linear_1158_3302)"/>
<path fill-rule="evenodd" clip-rule="evenodd" d="M56.8896 10.6032C55.9872 10.2192 54.9888 10.0272 53.8944 10.0272C52.8 10.0272 51.792 10.2192 50.8704 10.6032C49.968 10.968 49.1808 11.4864 48.5088 12.1584C47.856 12.8112 47.3376 13.5984 46.9536 14.52C46.5888 15.4416 46.4064 16.4496 46.4064 17.544C46.4064 18.6384 46.5888 19.6464 46.9536 20.568C47.3376 21.4896 47.856 22.2864 48.5088 22.9584C49.1808 23.6112 49.968 24.1296 50.8704 24.5136C51.792 24.8784 52.8 25.0608 53.8944 25.0608C54.9888 25.0608 55.9872 24.8784 56.8896 24.5136C57.8112 24.1296 58.5984 23.6112 59.2512 22.9584C59.9232 22.2864 60.4416 21.4896 60.8064 20.568C61.1904 19.6464 61.3824 18.6384 61.3824 17.544C61.3824 16.4496 61.1904 15.4416 60.8064 14.52C60.4416 13.5984 59.9232 12.8112 59.2512 12.1584C58.5984 11.4864 57.8112 10.968 56.8896 10.6032ZM55.2768 21.3168C54.8352 21.4896 54.3744 21.576 53.8944 21.576C53.3952 21.576 52.9248 21.4896 52.4832 21.3168C52.0416 21.1248 51.648 20.856 51.3024 20.5104C50.9568 20.1648 50.6784 19.7424 50.4672 19.2432C50.2752 18.744 50.1792 18.1776 50.1792 17.544C50.1792 16.9104 50.2752 16.344 50.4672 15.8448C50.6784 15.3456 50.9568 14.9232 51.3024 14.5776C51.648 14.232 52.0416 13.9728 52.4832 13.8C52.9248 13.608 53.3952 13.512 53.8944 13.512C54.3744 13.512 54.8352 13.608 55.2768 13.8C55.7376 13.9728 56.1408 14.232 56.4864 14.5776C56.832 14.9232 57.1008 15.3456 57.2928 15.8448C57.504 16.344 57.6096 16.9104 57.6096 17.544C57.6096 18.1776 57.504 18.744 57.2928 19.2432C57.1008 19.7424 56.832 20.1648 56.4864 20.5104C56.1408 20.856 55.7376 21.1248 55.2768 21.3168Z" fill="url(#paint1_linear_1158_3302)"/>
<path fill-rule="evenodd" clip-rule="evenodd" d="M67.0931 10.488H63.5507V30.8208H67.3235V24.9168L67.0931 22.9008H67.3235C67.6691 23.496 68.2067 24.0048 68.9363 24.4272C69.6659 24.8496 70.5683 25.0608 71.6435 25.0608C72.5459 25.0608 73.4003 24.8784 74.2067 24.5136C75.0323 24.1296 75.7523 23.6112 76.3667 22.9584C77.0003 22.2864 77.4995 21.4896 77.8643 20.568C78.2291 19.6464 78.4115 18.6384 78.4115 17.544C78.4115 16.4496 78.2291 15.4416 77.8643 14.52C77.4995 13.5984 77.0003 12.8112 76.3667 12.1584C75.7523 11.4864 75.0323 10.968 74.2067 10.6032C73.4003 10.2192 72.5459 10.0272 71.6435 10.0272C70.5683 10.0272 69.6659 10.2384 68.9363 10.6608C68.2067 11.0832 67.6691 11.592 67.3235 12.1872H67.0931V10.488ZM72.2771 21.288C71.8355 21.48 71.3651 21.576 70.8659 21.576C70.3667 21.576 69.8867 21.4896 69.4259 21.3168C68.9843 21.1248 68.5907 20.856 68.2451 20.5104C67.8995 20.1648 67.6211 19.7424 67.4099 19.2432C67.1987 18.744 67.0931 18.1776 67.0931 17.544C67.0931 16.9104 67.1987 16.344 67.4099 15.8448C67.6211 15.3456 67.8995 14.9232 68.2451 14.5776C68.5907 14.232 68.9843 13.9728 69.4259 13.8C69.8867 13.608 70.3667 13.512 70.8659 13.512C71.3651 13.512 71.8355 13.608 72.2771 13.8C72.7379 13.992 73.1411 14.2608 73.4867 14.6064C73.8323 14.952 74.1107 15.3744 74.3219 15.8736C74.5331 16.3728 74.6387 16.9296 74.6387 17.544C74.6387 18.1584 74.5331 18.7152 74.3219 19.2144C74.1107 19.7136 73.8323 20.136 73.4867 20.4816C73.1411 20.8272 72.7379 21.096 72.2771 21.288Z" fill="url(#paint2_linear_1158_3302)"/>
<path fill-rule="evenodd" clip-rule="evenodd" d="M91.5358 23.9952C92.6494 23.2848 93.5326 22.3536 94.1854 21.2016L91.0462 19.6464C90.7198 20.2416 90.2686 20.7408 89.6926 21.144C89.1358 21.528 88.4254 21.72 87.5614 21.72C87.1198 21.72 86.6878 21.6624 86.2654 21.5472C85.843 21.4128 85.4494 21.2112 85.0846 20.9424C84.739 20.6544 84.4414 20.3088 84.1918 19.9056C83.9614 19.4832 83.8078 18.984 83.731 18.408H94.3582C94.3582 18.2928 94.3678 18.1872 94.387 18.0912C94.387 17.9952 94.3966 17.8896 94.4158 17.7744V17.4288C94.4158 16.3728 94.2622 15.3936 93.955 14.4912C93.6478 13.5888 93.1966 12.8112 92.6014 12.1584C92.0062 11.4864 91.267 10.968 90.3838 10.6032C89.5006 10.2192 88.4926 10.0272 87.3598 10.0272C86.2846 10.0272 85.2958 10.2288 84.3934 10.632C83.5102 11.0352 82.7422 11.5824 82.0894 12.2736C81.4366 12.9456 80.9278 13.7424 80.563 14.664C80.1982 15.5664 80.0158 16.5264 80.0158 17.544C80.0158 18.6384 80.1982 19.6464 80.563 20.568C80.947 21.4704 81.475 22.2576 82.147 22.9296C82.819 23.6016 83.6062 24.1296 84.5086 24.5136C85.4302 24.8784 86.4286 25.0608 87.5038 25.0608C89.0974 25.0608 90.4414 24.7056 91.5358 23.9952ZM90.499 14.8944C90.6526 15.2016 90.739 15.48 90.7582 15.7296H83.9326C84.1822 14.904 84.6142 14.2608 85.2286 13.8C85.843 13.3392 86.5534 13.1088 87.3598 13.1088C87.9358 13.1088 88.4254 13.1952 88.8286 13.368C89.251 13.5408 89.5966 13.7616 89.8654 14.0304C90.1534 14.2992 90.3646 14.5872 90.499 14.8944Z" fill="url(#paint3_linear_1158_3302)"/>
<path d="M95.0464 10.488L100.979 23.9088L97.84 30.8208H101.901L110.742 10.488H106.538L103.11 19.0416H102.909L99.3376 10.488H95.0464Z" fill="url(#paint4_linear_1158_3302)"/>
<path fill-rule="evenodd" clip-rule="evenodd" d="M122.614 23.9952C123.727 23.2848 124.611 22.3536 125.263 21.2016L122.124 19.6464C121.798 20.2416 121.347 20.7408 120.771 21.144C120.214 21.528 119.503 21.72 118.639 21.72C118.198 21.72 117.766 21.6624 117.343 21.5472C116.921 21.4128 116.527 21.2112 116.163 20.9424C115.817 20.6544 115.519 20.3088 115.27 19.9056C115.039 19.4832 114.886 18.984 114.809 18.408H125.436C125.436 18.2928 125.446 18.1872 125.465 18.0912C125.465 17.9952 125.475 17.8896 125.494 17.7744V17.4288C125.494 16.3728 125.34 15.3936 125.033 14.4912C124.726 13.5888 124.275 12.8112 123.679 12.1584C123.084 11.4864 122.345 10.968 121.462 10.6032C120.579 10.2192 119.571 10.0272 118.438 10.0272C117.363 10.0272 116.374 10.2288 115.471 10.632C114.588 11.0352 113.82 11.5824 113.167 12.2736C112.515 12.9456 112.006 13.7424 111.641 14.664C111.276 15.5664 111.094 16.5264 111.094 17.544C111.094 18.6384 111.276 19.6464 111.641 20.568C112.025 21.4704 112.553 22.2576 113.225 22.9296C113.897 23.6016 114.684 24.1296 115.587 24.5136C116.508 24.8784 117.507 25.0608 118.582 25.0608C120.175 25.0608 121.519 24.7056 122.614 23.9952ZM121.577 14.8944C121.731 15.2016 121.817 15.48 121.836 15.7296H115.011C115.26 14.904 115.692 14.2608 116.307 13.8C116.921 13.3392 117.631 13.1088 118.438 13.1088C119.014 13.1088 119.503 13.1952 119.907 13.368C120.329 13.5408 120.675 13.7616 120.943 14.0304C121.231 14.2992 121.443 14.5872 121.577 14.8944Z" fill="url(#paint5_linear_1158_3302)"/>
<path d="M131.446 10.488H127.903V24.6H131.676V17.7456C131.676 17.1504 131.743 16.5936 131.878 16.0752C132.012 15.5568 132.204 15.1152 132.454 14.7504C132.703 14.3664 133.011 14.0688 133.375 13.8576C133.74 13.6272 134.163 13.512 134.643 13.512C136.294 13.512 137.119 14.472 137.119 16.392V24.6H140.892V17.7456C140.892 17.1504 140.959 16.5936 141.094 16.0752C141.247 15.5568 141.449 15.1152 141.699 14.7504C141.967 14.3664 142.294 14.0688 142.678 13.8576C143.062 13.6272 143.503 13.512 144.003 13.512C145.577 13.512 146.364 14.472 146.364 16.392V24.6H150.137V15.7008C150.137 14.8752 150.031 14.1168 149.82 13.4256C149.609 12.7152 149.292 12.1104 148.87 11.6112C148.467 11.112 147.948 10.728 147.315 10.4592C146.681 10.1712 145.932 10.0272 145.068 10.0272C143.916 10.0272 142.937 10.2864 142.131 10.8048C141.324 11.304 140.7 11.9088 140.259 12.6192C139.951 11.8896 139.433 11.2752 138.703 10.776C137.974 10.2768 137.071 10.0272 135.996 10.0272C135.075 10.0272 134.23 10.2384 133.462 10.6608C132.713 11.0832 132.118 11.64 131.676 12.3312H131.446V10.488Z" fill="url(#paint6_linear_1158_3302)"/>
<path d="M154.396 8.2704C154.703 8.3856 155.02 8.4432 155.346 8.4432C156.018 8.4432 156.594 8.2128 157.074 7.752C157.554 7.272 157.794 6.696 157.794 6.024C157.794 5.352 157.554 4.7856 157.074 4.3248C156.594 3.8448 156.018 3.6048 155.346 3.6048C155.02 3.6048 154.703 3.672 154.396 3.8064C154.108 3.9216 153.849 4.0944 153.618 4.3248C153.407 4.536 153.234 4.7856 153.1 5.0736C152.985 5.3616 152.927 5.6784 152.927 6.024C152.927 6.3696 152.985 6.6864 153.1 6.9744C153.234 7.2624 153.407 7.5216 153.618 7.752C153.849 7.9632 154.108 8.136 154.396 8.2704Z" fill="url(#paint7_linear_1158_3302)"/>
<path d="M157.247 10.488H153.474V24.6H157.247V10.488Z" fill="url(#paint8_linear_1158_3302)"/>
<defs>
<linearGradient id="paint0_linear_1158_3302" x1="159.737" y1="-23.5275" x2="82.994" y2="8.51472" gradientUnits="userSpaceOnUse">
<stop stop-color="#3347B1"/>
<stop offset="1" stop-color="#6247B1"/>
</linearGradient>
<linearGradient id="paint1_linear_1158_3302" x1="159.737" y1="-23.5275" x2="82.994" y2="8.51472" gradientUnits="userSpaceOnUse">
<stop stop-color="#3347B1"/>
<stop offset="1" stop-color="#6247B1"/>
</linearGradient>
<linearGradient id="paint2_linear_1158_3302" x1="159.737" y1="-23.5275" x2="82.994" y2="8.51472" gradientUnits="userSpaceOnUse">
<stop stop-color="#3347B1"/>
<stop offset="1" stop-color="#6247B1"/>
</linearGradient>
<linearGradient id="paint3_linear_1158_3302" x1="159.737" y1="-23.5275" x2="82.994" y2="8.51472" gradientUnits="userSpaceOnUse">
<stop stop-color="#3347B1"/>
<stop offset="1" stop-color="#6247B1"/>
</linearGradient>
<linearGradient id="paint4_linear_1158_3302" x1="159.737" y1="-23.5275" x2="82.994" y2="8.51472" gradientUnits="userSpaceOnUse">
<stop stop-color="#3347B1"/>
<stop offset="1" stop-color="#6247B1"/>
</linearGradient>
<linearGradient id="paint5_linear_1158_3302" x1="159.737" y1="-23.5275" x2="82.994" y2="8.51472" gradientUnits="userSpaceOnUse">
<stop stop-color="#3347B1"/>
<stop offset="1" stop-color="#6247B1"/>
</linearGradient>
<linearGradient id="paint6_linear_1158_3302" x1="159.737" y1="-23.5275" x2="82.994" y2="8.51472" gradientUnits="userSpaceOnUse">
<stop stop-color="#3347B1"/>
<stop offset="1" stop-color="#6247B1"/>
</linearGradient>
<linearGradient id="paint7_linear_1158_3302" x1="159.737" y1="-23.5275" x2="82.994" y2="8.51472" gradientUnits="userSpaceOnUse">
<stop stop-color="#3347B1"/>
<stop offset="1" stop-color="#6247B1"/>
</linearGradient>
<linearGradient id="paint8_linear_1158_3302" x1="159.737" y1="-23.5275" x2="82.994" y2="8.51472" gradientUnits="userSpaceOnUse">
<stop stop-color="#3347B1"/>
<stop offset="1" stop-color="#6247B1"/>
</linearGradient>
</defs>
</svg>
